<svg width="25" height="20" viewBox="0 0 25 20" fill="none" xmlns="http://www.w3.org/2000/svg">
<path fill-rule="evenodd" clip-rule="evenodd" d="M12.5 1.81818C9.66946 1.81818 5.81409 2.06084 3.36584 2.23927C2.55278 2.29852 1.92308 2.94215 1.92308 3.72827V4.6166L11.7217 9.76337C12.2057 10.0176 12.7943 10.0176 13.2783 9.76337L23.0769 4.6166V3.72827C23.0769 2.94215 22.4472 2.29852 21.6342 2.23927C19.1859 2.06084 15.3305 1.81818 12.5 1.81818ZM23.0769 6.69653L14.2122 11.3527C13.1474 11.912 11.8526 11.912 10.7878 11.3527L1.92308 6.69653V16.2717C1.92308 17.0579 2.55278 17.7015 3.36585 17.7607C5.81409 17.9392 9.66946 18.1818 12.5 18.1818C15.3305 18.1818 19.1859 17.9392 21.6342 17.7607C22.4472 17.7015 23.0769 17.0579 23.0769 16.2717V6.69653ZM3.21804 0.426462C5.66776 0.247927 9.58835 0 12.5 0C15.4117 0 19.3322 0.247927 21.782 0.426462C23.6127 0.559888 25 2.00736 25 3.72827V16.2717C25 17.9926 23.6127 19.4401 21.782 19.5735C19.3322 19.7521 15.4117 20 12.5 20C9.58835 20 5.66777 19.7521 3.21804 19.5735C1.38728 19.4401 0 17.9926 0 16.2717V3.72827C0 2.00736 1.38728 0.559888 3.21804 0.426462Z" fill="#007F6E"/>
</svg>
