<svg width="30" height="30" viewBox="0 0 30 30" fill="none" xmlns="http://www.w3.org/2000/svg">
<path fill-rule="evenodd" clip-rule="evenodd" d="M15 2.30769C7.99023 2.30769 2.30769 7.99023 2.30769 15C2.30769 22.0098 7.99023 27.6923 15 27.6923C22.0098 27.6923 27.6923 22.0098 27.6923 15C27.6923 7.99023 22.0098 2.30769 15 2.30769ZM0 15C0 6.71573 6.71573 0 15 0C23.2843 0 30 6.71573 30 15C30 23.2843 23.2843 30 15 30C6.71573 30 0 23.2843 0 15Z" fill="#007F6E"/>
<path fill-rule="evenodd" clip-rule="evenodd" d="M15.0001 6.15385C15.6373 6.15385 16.1539 6.67044 16.1539 7.30769V15C16.1539 15.306 16.0323 15.5995 15.816 15.8159L11.2005 20.4313C10.7499 20.8819 10.0194 20.8819 9.56876 20.4313C9.11815 19.9807 9.11815 19.2501 9.56876 18.7995L13.8462 14.5221V7.30769C13.8462 6.67044 14.3628 6.15385 15.0001 6.15385Z" fill="#007F6E"/>
</svg>
