<svg width="28" height="27" viewBox="0 0 28 27" fill="none" xmlns="http://www.w3.org/2000/svg">
<path fill-rule="evenodd" clip-rule="evenodd" d="M3.5014 1.11866C5.21754 -0.587608 8.04345 -0.284429 9.48037 1.63617L11.26 4.01084C12.4304 5.57327 12.326 7.75616 10.937 9.13668L10.6014 9.47229C10.5634 9.61318 10.5595 9.76111 10.5901 9.90379C10.679 10.4791 11.1598 11.6975 13.1735 13.6999C15.1872 15.7023 16.414 16.1817 16.9978 16.272C17.1449 16.3015 17.2968 16.2972 17.442 16.2593L18.0173 15.6868C19.2526 14.4599 21.1478 14.2301 22.6764 15.0607L25.3698 16.5272C27.6782 17.7794 28.2605 20.9155 26.371 22.7952L24.3672 24.7864C23.7354 25.4139 22.8865 25.937 21.8515 26.0343C19.2991 26.2726 13.3526 25.968 7.10148 19.7536C1.26775 13.9523 0.148102 8.89273 0.00567862 6.39961C-0.0648281 5.13895 0.530249 4.07289 1.2889 3.31988L3.5014 1.11866ZM7.78821 2.90389C7.07327 1.94922 5.74211 1.87308 4.99191 2.61904L2.778 4.81885C2.31266 5.28137 2.08986 5.79184 2.11806 6.27975C2.23087 8.26099 3.13336 12.8256 8.5934 18.2546C14.3214 23.9487 19.6108 24.1194 21.6555 23.9276C22.0729 23.8895 22.4875 23.6723 22.8752 23.2874L24.8776 21.2949C25.6927 20.4854 25.5136 19.0104 24.3601 18.3843L21.6668 16.9192C20.9222 16.5159 20.0507 16.6485 19.5093 17.1871L18.8676 17.8259L18.1203 17.0757C18.8676 17.8259 18.8648 17.8273 18.8648 17.8273L18.8634 17.8302L18.8592 17.8344L18.8493 17.8429L18.8282 17.8626C18.7687 17.9178 18.7045 17.9679 18.6364 18.0121C18.5236 18.0868 18.3741 18.17 18.1865 18.2391C17.8058 18.3815 17.301 18.4577 16.6777 18.3618C15.4551 18.1742 13.8349 17.3408 11.6816 15.2003C9.52973 13.0597 8.68929 11.4493 8.50033 10.2281C8.40303 9.60485 8.48059 9.10002 8.62442 8.71928C8.70358 8.50504 8.81692 8.30503 8.96003 8.12702L9.00516 8.07767L9.0249 8.05652L9.03336 8.04806L9.03759 8.04383L9.04041 8.04101L9.44653 7.63771C10.0501 7.03558 10.1347 6.03861 9.56639 5.27855L7.78821 2.90389Z" fill="#007F6E"/>
</svg>
